<mxfile host="www.draw.io" modified="2020-01-14T09:33:17.624Z" agent="Mozilla/5.0 (Windows NT 10.0; Win64; x64) AppleWebKit/537.36 (KHTML, like Gecko) Chrome/77.0.3865.120 Safari/537.36" etag="PQHF4-wretMVOUOXPB2l" version="12.5.1" type="github">
  <diagram id="7ux8K4FLt7wsnoR4v5PK" name="Page-1">
    <mxGraphModel dx="1038" dy="580" grid="1" gridSize="10" guides="1" tooltips="1" connect="1" arrows="1" fold="1" page="1" pageScale="1" pageWidth="827" pageHeight="1169" math="0" shadow="0">
      <root>
        <mxCell id="0"/>
        <mxCell id="1" parent="0"/>
        <mxCell id="wchgpISB6pgCxE_OMeMR-6" value="&lt;font style=&quot;font-size: 18px&quot;&gt;window&lt;/font&gt;" style="rounded=0;whiteSpace=wrap;html=1;" parent="1" vertex="1">
          <mxGeometry x="353" y="20" width="120" height="30" as="geometry"/>
        </mxCell>
        <mxCell id="wchgpISB6pgCxE_OMeMR-7" value="&lt;font style=&quot;font-size: 18px&quot;&gt;Object:#101&lt;br&gt;Array:#202&lt;/font&gt;" style="rounded=0;whiteSpace=wrap;html=1;" parent="1" vertex="1">
          <mxGeometry x="353" y="50" width="120" height="60" as="geometry"/>
        </mxCell>
        <mxCell id="wchgpISB6pgCxE_OMeMR-8" value="" style="endArrow=classic;html=1;rounded=1;dashed=1;entryX=0.5;entryY=0;entryDx=0;entryDy=0;" parent="1" target="wchgpISB6pgCxE_OMeMR-10" edge="1">
          <mxGeometry width="50" height="50" relative="1" as="geometry">
            <mxPoint x="360" y="70" as="sourcePoint"/>
            <mxPoint x="220" y="160" as="targetPoint"/>
          </mxGeometry>
        </mxCell>
        <mxCell id="wchgpISB6pgCxE_OMeMR-9" value="" style="endArrow=classic;html=1;dashed=1;entryX=0.5;entryY=0;entryDx=0;entryDy=0;" parent="1" target="wchgpISB6pgCxE_OMeMR-12" edge="1">
          <mxGeometry width="50" height="50" relative="1" as="geometry">
            <mxPoint x="460" y="90" as="sourcePoint"/>
            <mxPoint x="610" y="130" as="targetPoint"/>
          </mxGeometry>
        </mxCell>
        <mxCell id="wchgpISB6pgCxE_OMeMR-10" value="&lt;font style=&quot;font-size: 18px&quot;&gt;#101&lt;br&gt;keys&lt;br&gt;...&lt;br&gt;prototype:#409&lt;/font&gt;" style="rounded=0;whiteSpace=wrap;html=1;" parent="1" vertex="1">
          <mxGeometry x="150" y="160" width="140" height="110" as="geometry"/>
        </mxCell>
        <mxCell id="wchgpISB6pgCxE_OMeMR-12" value="&lt;font style=&quot;font-size: 18px&quot;&gt;#202&lt;br&gt;函数内容&lt;br&gt;from&lt;br&gt;prototype:#9527&lt;/font&gt;" style="rounded=0;whiteSpace=wrap;html=1;" parent="1" vertex="1">
          <mxGeometry x="520" y="160" width="140" height="110" as="geometry"/>
        </mxCell>
        <mxCell id="wchgpISB6pgCxE_OMeMR-13" value="" style="endArrow=classic;html=1;dashed=1;exitX=0.786;exitY=0.818;exitDx=0;exitDy=0;exitPerimeter=0;" parent="1" source="wchgpISB6pgCxE_OMeMR-10" edge="1">
          <mxGeometry width="50" height="50" relative="1" as="geometry">
            <mxPoint x="150" y="340" as="sourcePoint"/>
            <mxPoint x="260" y="350" as="targetPoint"/>
          </mxGeometry>
        </mxCell>
        <mxCell id="wchgpISB6pgCxE_OMeMR-14" value="" style="endArrow=classic;html=1;dashed=1;exitX=0.786;exitY=0.818;exitDx=0;exitDy=0;exitPerimeter=0;" parent="1" edge="1">
          <mxGeometry width="50" height="50" relative="1" as="geometry">
            <mxPoint x="630.04" y="250.00000000000003" as="sourcePoint"/>
            <mxPoint x="630" y="350.02" as="targetPoint"/>
            <Array as="points">
              <mxPoint x="630" y="300.02"/>
            </Array>
          </mxGeometry>
        </mxCell>
        <mxCell id="wchgpISB6pgCxE_OMeMR-15" value="&lt;font style=&quot;font-size: 18px&quot;&gt;#409&lt;br&gt;&lt;/font&gt;&lt;ol class=&quot;children expanded&quot; style=&quot;min-width: 0px ; min-height: 0px ; box-sizing: border-box ; list-style-type: none ; padding-left: 12px ; color: rgb(33 , 33 , 33) ; font-family: &amp;#34;consolas&amp;#34; , &amp;#34;lucida console&amp;#34; , &amp;#34;courier new&amp;#34; , monospace ; white-space: pre-wrap&quot;&gt;&lt;li class=&quot;parent&quot; style=&quot;min-width: 0px ; min-height: 16px ; box-sizing: border-box ; text-overflow: ellipsis ; white-space: nowrap ; position: relative ; display: flex&quot;&gt;&lt;span class=&quot;name-and-value&quot; style=&quot;min-width: 0px ; min-height: 0px ; box-sizing: border-box ; overflow: hidden ; text-overflow: ellipsis ; line-height: 16px&quot;&gt;&lt;span class=&quot;name object-properties-section-dimmed&quot; style=&quot;min-width: 0px ; min-height: 0px ; box-sizing: border-box ; color: rgb(136 , 19 , 145) ; opacity: 0.6&quot;&gt;....&lt;/span&gt;&lt;/span&gt;&lt;/li&gt;&lt;li class=&quot;parent&quot; style=&quot;min-width: 0px ; min-height: 16px ; box-sizing: border-box ; text-overflow: ellipsis ; white-space: nowrap ; position: relative ; display: flex&quot;&gt;&lt;span class=&quot;name-and-value&quot; style=&quot;min-width: 0px ; min-height: 0px ; box-sizing: border-box ; overflow: hidden ; text-overflow: ellipsis ; line-height: 16px&quot;&gt;&lt;span class=&quot;name object-properties-section-dimmed&quot; style=&quot;min-width: 0px ; min-height: 0px ; box-sizing: border-box ; color: rgb(136 , 19 , 145) ; opacity: 0.6&quot;&gt;constructor&lt;/span&gt;&lt;span&gt;:&amp;nbsp;&lt;/span&gt;&lt;span class=&quot;object-value-function value&quot; style=&quot;min-width: 0px ; min-height: 0px ; box-sizing: border-box ; font-style: italic&quot;&gt;&lt;span class=&quot;object-value-function-prefix&quot; style=&quot;min-width: 0px ; min-height: 0px ; box-sizing: border-box ; color: rgb(13 , 34 , 170)&quot;&gt;ƒ&amp;nbsp;&lt;/span&gt;Object()&lt;/span&gt;&lt;br&gt;&lt;/span&gt;&lt;/li&gt;&lt;li class=&quot;parent&quot; style=&quot;min-width: 0px ; min-height: 16px ; box-sizing: border-box ; text-overflow: ellipsis ; white-space: nowrap ; position: relative ; display: flex&quot;&gt;&lt;span class=&quot;name-and-value&quot; style=&quot;min-width: 0px ; min-height: 0px ; box-sizing: border-box ; overflow: hidden ; text-overflow: ellipsis ; line-height: 16px&quot;&gt;&lt;span class=&quot;name object-properties-section-dimmed&quot; style=&quot;min-width: 0px ; min-height: 0px ; box-sizing: border-box ; color: rgb(136 , 19 , 145) ; opacity: 0.6&quot;&gt;hasOwnProperty&lt;/span&gt;:&amp;nbsp;&lt;span class=&quot;object-value-function value&quot; style=&quot;min-width: 0px ; min-height: 0px ; box-sizing: border-box ; font-style: italic&quot;&gt;&lt;span class=&quot;object-value-function-prefix&quot; style=&quot;min-width: 0px ; min-height: 0px ; box-sizing: border-box ; color: rgb(13 , 34 , 170)&quot;&gt;ƒ&amp;nbsp;&lt;/span&gt;hasOwnProperty()&lt;/span&gt;&lt;/span&gt;&lt;/li&gt;&lt;li class=&quot;parent&quot; style=&quot;min-width: 0px ; min-height: 16px ; box-sizing: border-box ; text-overflow: ellipsis ; white-space: nowrap ; position: relative ; display: flex&quot;&gt;&lt;span class=&quot;name-and-value&quot; style=&quot;min-width: 0px ; min-height: 0px ; box-sizing: border-box ; overflow: hidden ; text-overflow: ellipsis ; line-height: 16px&quot;&gt;&lt;span class=&quot;name object-properties-section-dimmed&quot; style=&quot;min-width: 0px ; min-height: 0px ; box-sizing: border-box ; color: rgb(136 , 19 , 145) ; opacity: 0.6&quot;&gt;isPrototypeOf&lt;/span&gt;:&amp;nbsp;&lt;span class=&quot;object-value-function value&quot; style=&quot;min-width: 0px ; min-height: 0px ; box-sizing: border-box ; font-style: italic&quot;&gt;&lt;span class=&quot;object-value-function-prefix&quot; style=&quot;min-width: 0px ; min-height: 0px ; box-sizing: border-box ; color: rgb(13 , 34 , 170)&quot;&gt;ƒ&amp;nbsp;&lt;/span&gt;isPrototypeOf()&lt;/span&gt;&lt;/span&gt;&lt;/li&gt;&lt;li class=&quot;parent&quot; style=&quot;min-width: 0px ; min-height: 16px ; box-sizing: border-box ; text-overflow: ellipsis ; white-space: nowrap ; position: relative ; display: flex&quot;&gt;&lt;span class=&quot;name-and-value&quot; style=&quot;min-width: 0px ; min-height: 0px ; box-sizing: border-box ; overflow: hidden ; text-overflow: ellipsis ; line-height: 16px&quot;&gt;&lt;span class=&quot;name object-properties-section-dimmed&quot; style=&quot;min-width: 0px ; min-height: 0px ; box-sizing: border-box ; color: rgb(136 , 19 , 145) ; opacity: 0.6&quot;&gt;propertyIsEnumerable&lt;/span&gt;:&amp;nbsp;&lt;span class=&quot;object-value-function value&quot; style=&quot;min-width: 0px ; min-height: 0px ; box-sizing: border-box ; font-style: italic&quot;&gt;&lt;span class=&quot;object-value-function-prefix&quot; style=&quot;min-width: 0px ; min-height: 0px ; box-sizing: border-box ; color: rgb(13 , 34 , 170)&quot;&gt;ƒ&amp;nbsp;&lt;/span&gt;propertyIsEnumerable()&lt;/span&gt;&lt;/span&gt;&lt;/li&gt;&lt;li class=&quot;parent&quot; style=&quot;min-width: 0px ; min-height: 16px ; box-sizing: border-box ; text-overflow: ellipsis ; white-space: nowrap ; position: relative ; display: flex&quot;&gt;&lt;span class=&quot;name-and-value&quot; style=&quot;min-width: 0px ; min-height: 0px ; box-sizing: border-box ; overflow: hidden ; text-overflow: ellipsis ; line-height: 16px&quot;&gt;&lt;span class=&quot;name object-properties-section-dimmed&quot; style=&quot;min-width: 0px ; min-height: 0px ; box-sizing: border-box ; color: rgb(136 , 19 , 145) ; opacity: 0.6&quot;&gt;toLocaleString&lt;/span&gt;:&amp;nbsp;&lt;span class=&quot;object-value-function value&quot; style=&quot;min-width: 0px ; min-height: 0px ; box-sizing: border-box ; font-style: italic&quot;&gt;&lt;span class=&quot;object-value-function-prefix&quot; style=&quot;min-width: 0px ; min-height: 0px ; box-sizing: border-box ; color: rgb(13 , 34 , 170)&quot;&gt;ƒ&amp;nbsp;&lt;/span&gt;toLocaleString()&lt;/span&gt;&lt;/span&gt;&lt;/li&gt;&lt;li class=&quot;parent&quot; style=&quot;min-width: 0px ; min-height: 16px ; box-sizing: border-box ; text-overflow: ellipsis ; white-space: nowrap ; position: relative ; display: flex&quot;&gt;&lt;span class=&quot;name-and-value&quot; style=&quot;min-width: 0px ; min-height: 0px ; box-sizing: border-box ; overflow: hidden ; text-overflow: ellipsis ; line-height: 16px&quot;&gt;&lt;font style=&quot;font-size: 18px&quot;&gt;&lt;b&gt;&lt;span class=&quot;name object-properties-section-dimmed&quot; style=&quot;min-width: 0px ; min-height: 0px ; box-sizing: border-box ; color: rgb(136 , 19 , 145) ; opacity: 0.6&quot;&gt;toString&lt;/span&gt;:&amp;nbsp;&lt;span class=&quot;object-value-function value&quot; style=&quot;min-width: 0px ; min-height: 0px ; box-sizing: border-box ; font-style: italic&quot;&gt;&lt;span class=&quot;object-value-function-prefix&quot; style=&quot;min-width: 0px ; min-height: 0px ; box-sizing: border-box ; color: rgb(13 , 34 , 170)&quot;&gt;ƒ&amp;nbsp;&lt;/span&gt;toString()&lt;/span&gt;&lt;/b&gt;&lt;/font&gt;&lt;/span&gt;&lt;/li&gt;&lt;li class=&quot;parent&quot; style=&quot;min-width: 0px ; min-height: 16px ; box-sizing: border-box ; text-overflow: ellipsis ; white-space: nowrap ; position: relative ; display: flex&quot;&gt;&lt;span class=&quot;name-and-value&quot; style=&quot;min-width: 0px ; min-height: 0px ; box-sizing: border-box ; overflow: hidden ; text-overflow: ellipsis ; line-height: 16px&quot;&gt;&lt;span class=&quot;name object-properties-section-dimmed&quot; style=&quot;min-width: 0px ; min-height: 0px ; box-sizing: border-box ; color: rgb(136 , 19 , 145) ; opacity: 0.6&quot;&gt;valueOf&lt;/span&gt;:&amp;nbsp;&lt;span class=&quot;object-value-function value&quot; style=&quot;min-width: 0px ; min-height: 0px ; box-sizing: border-box ; font-style: italic&quot;&gt;&lt;span class=&quot;object-value-function-prefix&quot; style=&quot;min-width: 0px ; min-height: 0px ; box-sizing: border-box ; color: rgb(13 , 34 , 170)&quot;&gt;ƒ&amp;nbsp;&lt;/span&gt;valueOf()&lt;/span&gt;&lt;/span&gt;&lt;/li&gt;&lt;li class=&quot;parent&quot; style=&quot;min-width: 0px ; min-height: 16px ; box-sizing: border-box ; text-overflow: ellipsis ; white-space: nowrap ; position: relative ; display: flex&quot;&gt;&lt;span class=&quot;name-and-value&quot; style=&quot;min-width: 0px ; min-height: 0px ; box-sizing: border-box ; overflow: hidden ; text-overflow: ellipsis ; line-height: 16px&quot;&gt;&lt;span class=&quot;name object-properties-section-dimmed&quot; style=&quot;min-width: 0px ; min-height: 0px ; box-sizing: border-box ; color: rgb(136 , 19 , 145) ; opacity: 0.6&quot;&gt;__defineGetter__&lt;/span&gt;:&amp;nbsp;&lt;span class=&quot;object-value-function value&quot; style=&quot;min-width: 0px ; min-height: 0px ; box-sizing: border-box ; font-style: italic&quot;&gt;&lt;span class=&quot;object-value-function-prefix&quot; style=&quot;min-width: 0px ; min-height: 0px ; box-sizing: border-box ; color: rgb(13 , 34 , 170)&quot;&gt;ƒ&amp;nbsp;&lt;/span&gt;__defineGetter__()&lt;/span&gt;&lt;/span&gt;&lt;/li&gt;&lt;li class=&quot;parent&quot; style=&quot;min-width: 0px ; min-height: 16px ; box-sizing: border-box ; text-overflow: ellipsis ; white-space: nowrap ; position: relative ; display: flex&quot;&gt;&lt;span class=&quot;name-and-value&quot; style=&quot;min-width: 0px ; min-height: 0px ; box-sizing: border-box ; overflow: hidden ; text-overflow: ellipsis ; line-height: 16px&quot;&gt;&lt;span class=&quot;name object-properties-section-dimmed&quot; style=&quot;min-width: 0px ; min-height: 0px ; box-sizing: border-box ; color: rgb(136 , 19 , 145) ; opacity: 0.6&quot;&gt;__defineSetter__&lt;/span&gt;:&amp;nbsp;&lt;span class=&quot;object-value-function value&quot; style=&quot;min-width: 0px ; min-height: 0px ; box-sizing: border-box ; font-style: italic&quot;&gt;&lt;span class=&quot;object-value-function-prefix&quot; style=&quot;min-width: 0px ; min-height: 0px ; box-sizing: border-box ; color: rgb(13 , 34 , 170)&quot;&gt;ƒ&amp;nbsp;&lt;/span&gt;__defineSetter__()&lt;/span&gt;&lt;/span&gt;&lt;/li&gt;&lt;li class=&quot;parent&quot; style=&quot;min-width: 0px ; min-height: 16px ; box-sizing: border-box ; text-overflow: ellipsis ; white-space: nowrap ; position: relative ; display: flex&quot;&gt;&lt;span class=&quot;name-and-value&quot; style=&quot;min-width: 0px ; min-height: 0px ; box-sizing: border-box ; overflow: hidden ; text-overflow: ellipsis ; line-height: 16px&quot;&gt;&lt;span class=&quot;name object-properties-section-dimmed&quot; style=&quot;min-width: 0px ; min-height: 0px ; box-sizing: border-box ; color: rgb(136 , 19 , 145) ; opacity: 0.6&quot;&gt;__lookupGetter__&lt;/span&gt;:&amp;nbsp;&lt;span class=&quot;object-value-function value&quot; style=&quot;min-width: 0px ; min-height: 0px ; box-sizing: border-box ; font-style: italic&quot;&gt;&lt;span class=&quot;object-value-function-prefix&quot; style=&quot;min-width: 0px ; min-height: 0px ; box-sizing: border-box ; color: rgb(13 , 34 , 170)&quot;&gt;ƒ&amp;nbsp;&lt;/span&gt;__lookupGetter__()&lt;/span&gt;&lt;/span&gt;&lt;/li&gt;&lt;li class=&quot;parent&quot; style=&quot;min-width: 0px ; min-height: 16px ; box-sizing: border-box ; text-overflow: ellipsis ; white-space: nowrap ; position: relative ; display: flex&quot;&gt;&lt;span class=&quot;name-and-value&quot; style=&quot;min-width: 0px ; min-height: 0px ; box-sizing: border-box ; overflow: hidden ; text-overflow: ellipsis ; line-height: 16px&quot;&gt;&lt;span class=&quot;name object-properties-section-dimmed&quot; style=&quot;min-width: 0px ; min-height: 0px ; box-sizing: border-box ; color: rgb(136 , 19 , 145) ; opacity: 0.6&quot;&gt;__lookupSetter__&lt;/span&gt;:&amp;nbsp;&lt;span class=&quot;object-value-function value&quot; style=&quot;min-width: 0px ; min-height: 0px ; box-sizing: border-box ; font-style: italic&quot;&gt;&lt;span class=&quot;object-value-function-prefix&quot; style=&quot;min-width: 0px ; min-height: 0px ; box-sizing: border-box ; color: rgb(13 , 34 , 170)&quot;&gt;ƒ&amp;nbsp;&lt;/span&gt;__lookupSetter__()&lt;/span&gt;&lt;/span&gt;&lt;/li&gt;&lt;li class=&quot;parent&quot; style=&quot;min-width: 0px ; min-height: 16px ; box-sizing: border-box ; text-overflow: ellipsis ; white-space: nowrap ; position: relative ; display: flex&quot;&gt;&lt;span class=&quot;name-and-value&quot; style=&quot;min-width: 0px ; min-height: 0px ; box-sizing: border-box ; overflow: hidden ; text-overflow: ellipsis ; line-height: 16px&quot;&gt;&lt;span class=&quot;name object-properties-section-dimmed&quot; style=&quot;min-width: 0px ; min-height: 0px ; box-sizing: border-box ; color: rgb(136 , 19 , 145) ; opacity: 0.6&quot;&gt;get __proto__&lt;/span&gt;:&amp;nbsp;&lt;span class=&quot;object-value-function value&quot; style=&quot;min-width: 0px ; min-height: 0px ; box-sizing: border-box ; font-style: italic&quot;&gt;&lt;span class=&quot;object-value-function-prefix&quot; style=&quot;min-width: 0px ; min-height: 0px ; box-sizing: border-box ; color: rgb(13 , 34 , 170)&quot;&gt;ƒ&amp;nbsp;&lt;/span&gt;__proto__()&lt;/span&gt;&lt;/span&gt;&lt;/li&gt;&lt;li class=&quot;parent selected&quot; tabindex=&quot;-1&quot; style=&quot;min-width: 0px ; min-height: 16px ; box-sizing: border-box ; outline-width: 0px ; text-overflow: ellipsis ; white-space: nowrap ; position: relative ; display: flex&quot;&gt;&lt;span class=&quot;name-and-value&quot; style=&quot;min-width: 0px ; min-height: 0px ; box-sizing: border-box ; overflow: hidden ; text-overflow: ellipsis ; line-height: 16px&quot;&gt;&lt;span class=&quot;name object-properties-section-dimmed&quot; style=&quot;min-width: 0px ; min-height: 0px ; box-sizing: border-box ; color: rgb(136 , 19 , 145) ; opacity: 0.6&quot;&gt;set __proto__&lt;/span&gt;:&amp;nbsp;&lt;span class=&quot;object-value-function value&quot; style=&quot;min-width: 0px ; min-height: 0px ; box-sizing: border-box ; font-style: italic&quot;&gt;&lt;span class=&quot;object-value-function-prefix&quot; style=&quot;min-width: 0px ; min-height: 0px ; box-sizing: border-box ; color: rgb(13 , 34 , 170)&quot;&gt;ƒ&amp;nbsp;&lt;/span&gt;__proto__()&lt;/span&gt;&lt;/span&gt;&lt;/li&gt;&lt;/ol&gt;" style="rounded=0;whiteSpace=wrap;html=1;" parent="1" vertex="1">
          <mxGeometry x="100" y="350" width="320" height="290" as="geometry"/>
        </mxCell>
        <mxCell id="wchgpISB6pgCxE_OMeMR-19" value="&lt;font style=&quot;font-size: 18px&quot;&gt;#9527&lt;/font&gt;&lt;br&gt;&lt;ol class=&quot;children expanded&quot; style=&quot;min-width: 0px ; min-height: 0px ; box-sizing: border-box ; list-style-type: none ; padding-left: 12px ; color: rgb(33 , 33 , 33) ; font-family: &amp;#34;consolas&amp;#34; , &amp;#34;lucida console&amp;#34; , &amp;#34;courier new&amp;#34; , monospace ; white-space: pre-wrap&quot;&gt;&lt;li class=&quot;parent&quot; style=&quot;min-width: 0px ; min-height: 16px ; box-sizing: border-box ; text-overflow: ellipsis ; white-space: nowrap ; position: relative ; display: flex&quot;&gt;&lt;span class=&quot;name-and-value&quot; style=&quot;min-width: 0px ; min-height: 0px ; box-sizing: border-box ; overflow: hidden ; text-overflow: ellipsis ; line-height: 16px&quot;&gt;&lt;span class=&quot;name object-properties-section-dimmed&quot; style=&quot;min-width: 0px ; min-height: 0px ; box-sizing: border-box ; color: rgb(136 , 19 , 145) ; opacity: 0.6&quot;&gt;....&lt;/span&gt;&lt;/span&gt;&lt;/li&gt;&lt;li class=&quot;parent&quot; style=&quot;min-width: 0px ; min-height: 16px ; box-sizing: border-box ; text-overflow: ellipsis ; white-space: nowrap ; position: relative ; display: flex&quot;&gt;&lt;span class=&quot;name-and-value&quot; style=&quot;min-width: 0px ; min-height: 0px ; box-sizing: border-box ; overflow: hidden ; text-overflow: ellipsis ; line-height: 16px&quot;&gt;&lt;span class=&quot;name object-properties-section-dimmed&quot; style=&quot;min-width: 0px ; min-height: 0px ; box-sizing: border-box ; color: rgb(136 , 19 , 145) ; opacity: 0.6&quot;&gt;forEach&lt;/span&gt;:&amp;nbsp;&lt;span class=&quot;object-value-function value&quot; style=&quot;min-width: 0px ; min-height: 0px ; box-sizing: border-box ; font-style: italic&quot;&gt;&lt;span class=&quot;object-value-function-prefix&quot; style=&quot;min-width: 0px ; min-height: 0px ; box-sizing: border-box ; color: rgb(13 , 34 , 170)&quot;&gt;ƒ&amp;nbsp;&lt;/span&gt;forEach()&lt;/span&gt;&lt;/span&gt;&lt;/li&gt;&lt;li class=&quot;parent&quot; style=&quot;min-width: 0px ; min-height: 16px ; box-sizing: border-box ; text-overflow: ellipsis ; white-space: nowrap ; position: relative ; display: flex&quot;&gt;&lt;span class=&quot;name-and-value&quot; style=&quot;min-width: 0px ; min-height: 0px ; box-sizing: border-box ; overflow: hidden ; text-overflow: ellipsis ; line-height: 16px&quot;&gt;&lt;span class=&quot;name object-properties-section-dimmed&quot; style=&quot;min-width: 0px ; min-height: 0px ; box-sizing: border-box ; color: rgb(136 , 19 , 145) ; opacity: 0.6&quot;&gt;includes&lt;/span&gt;:&amp;nbsp;&lt;span class=&quot;object-value-function value&quot; style=&quot;min-width: 0px ; min-height: 0px ; box-sizing: border-box ; font-style: italic&quot;&gt;&lt;span class=&quot;object-value-function-prefix&quot; style=&quot;min-width: 0px ; min-height: 0px ; box-sizing: border-box ; color: rgb(13 , 34 , 170)&quot;&gt;ƒ&amp;nbsp;&lt;/span&gt;includes()&lt;/span&gt;&lt;/span&gt;&lt;/li&gt;&lt;li class=&quot;parent&quot; style=&quot;min-width: 0px ; min-height: 16px ; box-sizing: border-box ; text-overflow: ellipsis ; white-space: nowrap ; position: relative ; display: flex&quot;&gt;&lt;span class=&quot;name-and-value&quot; style=&quot;min-width: 0px ; min-height: 0px ; box-sizing: border-box ; overflow: hidden ; text-overflow: ellipsis ; line-height: 16px&quot;&gt;&lt;span class=&quot;name object-properties-section-dimmed&quot; style=&quot;min-width: 0px ; min-height: 0px ; box-sizing: border-box ; color: rgb(136 , 19 , 145) ; opacity: 0.6&quot;&gt;indexOf&lt;/span&gt;:&amp;nbsp;&lt;span class=&quot;object-value-function value&quot; style=&quot;min-width: 0px ; min-height: 0px ; box-sizing: border-box ; font-style: italic&quot;&gt;&lt;span class=&quot;object-value-function-prefix&quot; style=&quot;min-width: 0px ; min-height: 0px ; box-sizing: border-box ; color: rgb(13 , 34 , 170)&quot;&gt;ƒ&amp;nbsp;&lt;/span&gt;indexOf()&lt;/span&gt;&lt;/span&gt;&lt;/li&gt;&lt;li class=&quot;parent selected&quot; tabindex=&quot;-1&quot; style=&quot;min-width: 0px ; min-height: 16px ; box-sizing: border-box ; text-overflow: ellipsis ; white-space: nowrap ; position: relative ; display: flex&quot;&gt;&lt;span class=&quot;name-and-value&quot; style=&quot;min-width: 0px ; min-height: 0px ; box-sizing: border-box ; overflow: hidden ; text-overflow: ellipsis ; line-height: 16px&quot;&gt;&lt;span class=&quot;name object-properties-section-dimmed&quot; style=&quot;min-width: 0px ; min-height: 0px ; box-sizing: border-box ; color: rgb(136 , 19 , 145) ; opacity: 0.6&quot;&gt;join&lt;/span&gt;:&amp;nbsp;&lt;span class=&quot;object-value-function value&quot; style=&quot;min-width: 0px ; min-height: 0px ; box-sizing: border-box ; font-style: italic&quot;&gt;&lt;span class=&quot;object-value-function-prefix&quot; style=&quot;min-width: 0px ; min-height: 0px ; box-sizing: border-box ; color: rgb(13 , 34 , 170)&quot;&gt;ƒ&amp;nbsp;&lt;/span&gt;join()&lt;/span&gt;&lt;/span&gt;&lt;/li&gt;&lt;li class=&quot;parent&quot; style=&quot;min-width: 0px ; min-height: 16px ; box-sizing: border-box ; text-overflow: ellipsis ; white-space: nowrap ; position: relative ; display: flex&quot;&gt;&lt;span class=&quot;name-and-value&quot; style=&quot;min-width: 0px ; min-height: 0px ; box-sizing: border-box ; overflow: hidden ; text-overflow: ellipsis ; line-height: 16px&quot;&gt;&lt;span class=&quot;name object-properties-section-dimmed&quot; style=&quot;min-width: 0px ; min-height: 0px ; box-sizing: border-box ; color: rgb(136 , 19 , 145) ; opacity: 0.6&quot;&gt;keys&lt;/span&gt;:&amp;nbsp;&lt;span class=&quot;object-value-function value&quot; style=&quot;min-width: 0px ; min-height: 0px ; box-sizing: border-box ; font-style: italic&quot;&gt;&lt;span class=&quot;object-value-function-prefix&quot; style=&quot;min-width: 0px ; min-height: 0px ; box-sizing: border-box ; color: rgb(13 , 34 , 170)&quot;&gt;ƒ&amp;nbsp;&lt;/span&gt;keys()&lt;/span&gt;&lt;/span&gt;&lt;/li&gt;&lt;li class=&quot;parent&quot; style=&quot;min-width: 0px ; min-height: 16px ; box-sizing: border-box ; text-overflow: ellipsis ; white-space: nowrap ; position: relative ; display: flex&quot;&gt;&lt;span class=&quot;name-and-value&quot; style=&quot;min-width: 0px ; min-height: 0px ; box-sizing: border-box ; overflow: hidden ; text-overflow: ellipsis ; line-height: 16px&quot;&gt;&lt;span class=&quot;name object-properties-section-dimmed&quot; style=&quot;min-width: 0px ; min-height: 0px ; box-sizing: border-box ; color: rgb(136 , 19 , 145) ; opacity: 0.6&quot;&gt;lastIndexOf&lt;/span&gt;:&amp;nbsp;&lt;span class=&quot;object-value-function value&quot; style=&quot;min-width: 0px ; min-height: 0px ; box-sizing: border-box ; font-style: italic&quot;&gt;&lt;span class=&quot;object-value-function-prefix&quot; style=&quot;min-width: 0px ; min-height: 0px ; box-sizing: border-box ; color: rgb(13 , 34 , 170)&quot;&gt;ƒ&amp;nbsp;&lt;/span&gt;lastIndexOf()&lt;/span&gt;&lt;/span&gt;&lt;/li&gt;&lt;li style=&quot;min-width: 0px ; min-height: 16px ; box-sizing: border-box ; text-overflow: ellipsis ; white-space: nowrap ; position: relative ; display: flex&quot;&gt;&lt;span class=&quot;name-and-value&quot; style=&quot;min-width: 0px ; min-height: 0px ; box-sizing: border-box ; overflow: hidden ; text-overflow: ellipsis ; line-height: 16px&quot;&gt;&lt;span class=&quot;name object-properties-section-dimmed&quot; style=&quot;min-width: 0px ; min-height: 0px ; box-sizing: border-box ; color: rgb(136 , 19 , 145) ; opacity: 0.6&quot;&gt;length&lt;/span&gt;:&amp;nbsp;&lt;span class=&quot;object-value-number value&quot; style=&quot;min-width: 0px ; min-height: 0px ; box-sizing: border-box ; color: rgb(28 , 0 , 207)&quot;&gt;0&lt;/span&gt;&lt;/span&gt;&lt;/li&gt;&lt;li class=&quot;parent&quot; style=&quot;min-width: 0px ; min-height: 16px ; box-sizing: border-box ; text-overflow: ellipsis ; white-space: nowrap ; position: relative ; display: flex&quot;&gt;&lt;span class=&quot;name-and-value&quot; style=&quot;min-width: 0px ; min-height: 0px ; box-sizing: border-box ; overflow: hidden ; text-overflow: ellipsis ; line-height: 16px&quot;&gt;&lt;span class=&quot;name object-properties-section-dimmed&quot; style=&quot;min-width: 0px ; min-height: 0px ; box-sizing: border-box ; color: rgb(136 , 19 , 145) ; opacity: 0.6&quot;&gt;map&lt;/span&gt;:&amp;nbsp;&lt;span class=&quot;object-value-function value&quot; style=&quot;min-width: 0px ; min-height: 0px ; box-sizing: border-box ; font-style: italic&quot;&gt;&lt;span class=&quot;object-value-function-prefix&quot; style=&quot;min-width: 0px ; min-height: 0px ; box-sizing: border-box ; color: rgb(13 , 34 , 170)&quot;&gt;ƒ&amp;nbsp;&lt;/span&gt;map()&lt;/span&gt;&lt;/span&gt;&lt;/li&gt;&lt;li class=&quot;parent&quot; style=&quot;min-width: 0px ; min-height: 16px ; box-sizing: border-box ; text-overflow: ellipsis ; white-space: nowrap ; position: relative ; display: flex&quot;&gt;&lt;span class=&quot;name-and-value&quot; style=&quot;min-width: 0px ; min-height: 0px ; box-sizing: border-box ; overflow: hidden ; text-overflow: ellipsis ; line-height: 16px&quot;&gt;&lt;span class=&quot;name object-properties-section-dimmed&quot; style=&quot;min-width: 0px ; min-height: 0px ; box-sizing: border-box ; color: rgb(136 , 19 , 145) ; opacity: 0.6&quot;&gt;pop&lt;/span&gt;:&amp;nbsp;&lt;span class=&quot;object-value-function value&quot; style=&quot;min-width: 0px ; min-height: 0px ; box-sizing: border-box ; font-style: italic&quot;&gt;&lt;span class=&quot;object-value-function-prefix&quot; style=&quot;min-width: 0px ; min-height: 0px ; box-sizing: border-box ; color: rgb(13 , 34 , 170)&quot;&gt;ƒ&amp;nbsp;&lt;/span&gt;pop()&lt;/span&gt;&lt;/span&gt;&lt;/li&gt;&lt;li class=&quot;parent&quot; style=&quot;min-width: 0px ; min-height: 16px ; box-sizing: border-box ; text-overflow: ellipsis ; white-space: nowrap ; position: relative ; display: flex&quot;&gt;&lt;span class=&quot;name-and-value&quot; style=&quot;min-width: 0px ; min-height: 0px ; box-sizing: border-box ; overflow: hidden ; text-overflow: ellipsis ; line-height: 16px&quot;&gt;&lt;font style=&quot;font-size: 18px&quot;&gt;&lt;b&gt;&lt;span class=&quot;name object-properties-section-dimmed&quot; style=&quot;min-width: 0px ; min-height: 0px ; box-sizing: border-box ; color: rgb(136 , 19 , 145) ; opacity: 0.6&quot;&gt;push&lt;/span&gt;:&amp;nbsp;&lt;span class=&quot;object-value-function value&quot; style=&quot;min-width: 0px ; min-height: 0px ; box-sizing: border-box ; font-style: italic&quot;&gt;&lt;span class=&quot;object-value-function-prefix&quot; style=&quot;min-width: 0px ; min-height: 0px ; box-sizing: border-box ; color: rgb(13 , 34 , 170)&quot;&gt;ƒ&amp;nbsp;&lt;/span&gt;push()&lt;/span&gt;&lt;/b&gt;&lt;/font&gt;&lt;/span&gt;&lt;/li&gt;&lt;li class=&quot;parent&quot; style=&quot;min-width: 0px ; min-height: 16px ; box-sizing: border-box ; text-overflow: ellipsis ; white-space: nowrap ; position: relative ; display: flex&quot;&gt;&lt;span class=&quot;name-and-value&quot; style=&quot;min-width: 0px ; min-height: 0px ; box-sizing: border-box ; overflow: hidden ; text-overflow: ellipsis ; line-height: 16px&quot;&gt;&lt;span class=&quot;name object-properties-section-dimmed&quot; style=&quot;min-width: 0px ; min-height: 0px ; box-sizing: border-box ; color: rgb(136 , 19 , 145) ; opacity: 0.6&quot;&gt;shift&lt;/span&gt;&lt;span&gt;:&lt;/span&gt;&lt;span&gt;&amp;nbsp;&lt;/span&gt;&lt;span class=&quot;object-value-function value&quot; style=&quot;min-width: 0px ; min-height: 0px ; box-sizing: border-box ; font-style: italic&quot;&gt;&lt;span class=&quot;object-value-function-prefix&quot; style=&quot;min-width: 0px ; min-height: 0px ; box-sizing: border-box ; color: rgb(13 , 34 , 170)&quot;&gt;ƒ&amp;nbsp;&lt;/span&gt;shift()&lt;/span&gt;&lt;br&gt;&lt;/span&gt;&lt;/li&gt;&lt;li class=&quot;parent&quot; style=&quot;min-width: 0px ; min-height: 16px ; box-sizing: border-box ; text-overflow: ellipsis ; white-space: nowrap ; position: relative ; display: flex&quot;&gt;&lt;span class=&quot;name-and-value&quot; style=&quot;min-width: 0px ; min-height: 0px ; box-sizing: border-box ; overflow: hidden ; text-overflow: ellipsis ; line-height: 16px&quot;&gt;&lt;span class=&quot;name object-properties-section-dimmed&quot; style=&quot;min-width: 0px ; min-height: 0px ; box-sizing: border-box ; color: rgb(136 , 19 , 145) ; opacity: 0.6&quot;&gt;slice&lt;/span&gt;:&amp;nbsp;&lt;span class=&quot;object-value-function value&quot; style=&quot;min-width: 0px ; min-height: 0px ; box-sizing: border-box ; font-style: italic&quot;&gt;&lt;span class=&quot;object-value-function-prefix&quot; style=&quot;min-width: 0px ; min-height: 0px ; box-sizing: border-box ; color: rgb(13 , 34 , 170)&quot;&gt;ƒ&amp;nbsp;&lt;/span&gt;slice()&lt;/span&gt;&lt;/span&gt;&lt;/li&gt;&lt;li class=&quot;parent&quot; style=&quot;min-width: 0px ; min-height: 16px ; box-sizing: border-box ; text-overflow: ellipsis ; white-space: nowrap ; position: relative ; display: flex&quot;&gt;&lt;span class=&quot;name-and-value&quot; style=&quot;min-width: 0px ; min-height: 0px ; box-sizing: border-box ; overflow: hidden ; text-overflow: ellipsis ; line-height: 16px&quot;&gt;&lt;span class=&quot;name object-properties-section-dimmed&quot; style=&quot;min-width: 0px ; min-height: 0px ; box-sizing: border-box ; color: rgb(136 , 19 , 145) ; opacity: 0.6&quot;&gt;some&lt;/span&gt;:&amp;nbsp;&lt;span class=&quot;object-value-function value&quot; style=&quot;min-width: 0px ; min-height: 0px ; box-sizing: border-box ; font-style: italic&quot;&gt;&lt;span class=&quot;object-value-function-prefix&quot; style=&quot;min-width: 0px ; min-height: 0px ; box-sizing: border-box ; color: rgb(13 , 34 , 170)&quot;&gt;ƒ&amp;nbsp;&lt;/span&gt;some()&lt;/span&gt;&lt;/span&gt;&lt;/li&gt;&lt;li class=&quot;parent&quot; style=&quot;min-width: 0px ; min-height: 16px ; box-sizing: border-box ; text-overflow: ellipsis ; white-space: nowrap ; position: relative ; display: flex&quot;&gt;&lt;span class=&quot;name-and-value&quot; style=&quot;min-width: 0px ; min-height: 0px ; box-sizing: border-box ; overflow: hidden ; text-overflow: ellipsis ; line-height: 16px&quot;&gt;&lt;span class=&quot;object-value-function value&quot; style=&quot;min-width: 0px ; min-height: 0px ; box-sizing: border-box ; font-style: italic&quot;&gt;....&lt;/span&gt;&lt;/span&gt;&lt;/li&gt;&lt;/ol&gt;" style="rounded=0;whiteSpace=wrap;html=1;" parent="1" vertex="1">
          <mxGeometry x="470" y="350" width="320" height="290" as="geometry"/>
        </mxCell>
        <mxCell id="wchgpISB6pgCxE_OMeMR-20" value="&lt;font style=&quot;font-size: 18px&quot;&gt;var obj = { }&lt;/font&gt;" style="rounded=0;whiteSpace=wrap;html=1;" parent="1" vertex="1">
          <mxGeometry x="190" y="680" width="140" height="30" as="geometry"/>
        </mxCell>
        <mxCell id="wchgpISB6pgCxE_OMeMR-21" value="&lt;font style=&quot;font-size: 18px&quot;&gt;#9011&lt;br&gt;...&lt;br&gt;__proto__:#409&lt;br&gt;&lt;/font&gt;" style="rounded=0;whiteSpace=wrap;html=1;" parent="1" vertex="1">
          <mxGeometry x="190" y="710" width="140" height="120" as="geometry"/>
        </mxCell>
        <mxCell id="wchgpISB6pgCxE_OMeMR-22" value="&lt;font style=&quot;font-size: 18px&quot;&gt;var arr = [1,2,3]&lt;/font&gt;" style="rounded=0;whiteSpace=wrap;html=1;" parent="1" vertex="1">
          <mxGeometry x="552.5" y="680" width="155" height="30" as="geometry"/>
        </mxCell>
        <mxCell id="wchgpISB6pgCxE_OMeMR-23" value="&lt;font style=&quot;font-size: 18px&quot;&gt;#555&lt;br&gt;...&lt;br&gt;1,2,3&lt;br&gt;length:3&lt;br&gt;__proto__:#9527&lt;br&gt;&lt;/font&gt;" style="rounded=0;whiteSpace=wrap;html=1;" parent="1" vertex="1">
          <mxGeometry x="552.5" y="710" width="155" height="120" as="geometry"/>
        </mxCell>
        <mxCell id="wchgpISB6pgCxE_OMeMR-24" value="" style="endArrow=classic;html=1;dashed=1;" parent="1" edge="1">
          <mxGeometry width="50" height="50" relative="1" as="geometry">
            <mxPoint x="320" y="790" as="sourcePoint"/>
            <mxPoint x="290" y="370" as="targetPoint"/>
            <Array as="points">
              <mxPoint x="390" y="790"/>
              <mxPoint x="390" y="370"/>
            </Array>
          </mxGeometry>
        </mxCell>
        <mxCell id="wchgpISB6pgCxE_OMeMR-25" value="" style="endArrow=classic;html=1;dashed=1;" parent="1" edge="1">
          <mxGeometry width="50" height="50" relative="1" as="geometry">
            <mxPoint x="700" y="810" as="sourcePoint"/>
            <mxPoint x="660" y="360" as="targetPoint"/>
            <Array as="points">
              <mxPoint x="760" y="810"/>
              <mxPoint x="760" y="360"/>
            </Array>
          </mxGeometry>
        </mxCell>
        <mxCell id="wchgpISB6pgCxE_OMeMR-31" value="&lt;font style=&quot;font-size: 18px&quot;&gt;obj.toString()&lt;/font&gt;" style="rounded=0;whiteSpace=wrap;html=1;" parent="1" vertex="1">
          <mxGeometry x="170" y="860" width="180" height="30" as="geometry"/>
        </mxCell>
        <mxCell id="wchgpISB6pgCxE_OMeMR-33" value="&lt;font style=&quot;font-size: 18px&quot;&gt;arr.push(4)&lt;/font&gt;" style="rounded=0;whiteSpace=wrap;html=1;" parent="1" vertex="1">
          <mxGeometry x="540" y="860" width="180" height="30" as="geometry"/>
        </mxCell>
        <mxCell id="wchgpISB6pgCxE_OMeMR-34" value="" style="endArrow=classic;html=1;dashed=1;exitX=0.5;exitY=0;exitDx=0;exitDy=0;entryX=0.357;entryY=0.75;entryDx=0;entryDy=0;entryPerimeter=0;" parent="1" source="wchgpISB6pgCxE_OMeMR-31" target="wchgpISB6pgCxE_OMeMR-21" edge="1">
          <mxGeometry width="50" height="50" relative="1" as="geometry">
            <mxPoint x="100" y="960" as="sourcePoint"/>
            <mxPoint x="150" y="910" as="targetPoint"/>
          </mxGeometry>
        </mxCell>
        <mxCell id="wchgpISB6pgCxE_OMeMR-35" value="" style="endArrow=classic;html=1;dashed=1;exitX=0.5;exitY=0;exitDx=0;exitDy=0;entryX=0.306;entryY=0.917;entryDx=0;entryDy=0;entryPerimeter=0;" parent="1" source="wchgpISB6pgCxE_OMeMR-33" target="wchgpISB6pgCxE_OMeMR-23" edge="1">
          <mxGeometry width="50" height="50" relative="1" as="geometry">
            <mxPoint x="100" y="960" as="sourcePoint"/>
            <mxPoint x="150" y="910" as="targetPoint"/>
          </mxGeometry>
        </mxCell>
        <mxCell id="wchgpISB6pgCxE_OMeMR-38" value="" style="endArrow=none;dashed=1;html=1;strokeColor=#b85450;fillColor=#f8cecc;" parent="1" edge="1">
          <mxGeometry width="50" height="50" relative="1" as="geometry">
            <mxPoint x="40" y="660" as="sourcePoint"/>
            <mxPoint x="800" y="660" as="targetPoint"/>
          </mxGeometry>
        </mxCell>
        <mxCell id="wchgpISB6pgCxE_OMeMR-41" value="创建空对象obj" style="text;html=1;align=center;verticalAlign=middle;resizable=0;points=[];autosize=1;" parent="1" vertex="1">
          <mxGeometry x="90" y="685" width="90" height="20" as="geometry"/>
        </mxCell>
        <mxCell id="wchgpISB6pgCxE_OMeMR-42" value="创建新数组arr" style="text;html=1;align=center;verticalAlign=middle;resizable=0;points=[];autosize=1;" parent="1" vertex="1">
          <mxGeometry x="455" y="685" width="90" height="20" as="geometry"/>
        </mxCell>
        <mxCell id="wchgpISB6pgCxE_OMeMR-43" value="执行" style="text;html=1;align=center;verticalAlign=middle;resizable=0;points=[];autosize=1;" parent="1" vertex="1">
          <mxGeometry x="115" y="865" width="40" height="20" as="geometry"/>
        </mxCell>
        <mxCell id="wchgpISB6pgCxE_OMeMR-44" value="执行" style="text;html=1;align=center;verticalAlign=middle;resizable=0;points=[];autosize=1;" parent="1" vertex="1">
          <mxGeometry x="490" y="865" width="40" height="20" as="geometry"/>
        </mxCell>
      </root>
    </mxGraphModel>
  </diagram>
</mxfile>
